<svg xmlns="http://www.w3.org/2000/svg" version="1.1"
  viewBox="0 0 500 500">
  <path d="m57.473 187.96v-79.861c0-16.53 3.2095-17.526 16.425-18.123 1.1328-1.1949 1.1328-5.3772 0-6.5722-8.3069 0.19917-17.369 0.39833-24.543 0.39833-6.419 0-15.481-0.19916-24.354-0.39833-1.1328 1.1949-1.1328 5.3772 0 6.5722 13.216 0.59746 16.425 1.5932 16.425 18.123v79.861c0 16.53-3.2095 17.526-16.425 18.123-1.1328 1.1949-1.1328 5.3772 0 6.5722 8.4957-0.19897 17.558-0.39843 24.543-0.39843 6.6078 0 15.859 0.19898 24.354 0.39843 1.1328-1.1949 1.1328-5.3772 0-6.5722-13.216-0.59744-16.425-1.5932-16.425-18.123z"/>
  <path d="m106.72 187.96v-37.84c0-9.7586 2.2655-7.7671 6.7966-2.1907l44.367 62.336c2.8319 3.1865 5.8526 4.3814 8.6845 4.3814 2.2655 0 4.1535-1.394 4.1535-5.3772v-64.327c0-16.53 2.0767-17.127 13.593-18.123 1.1328-1.1949 1.1328-5.3772 0-6.5721-5.6638 0.19916-12.46 0.39833-18.124 0.39833s-12.272-0.19917-17.935-0.39833c-1.1328 1.1949-1.1328 5.3772 0 6.5721 11.516 0.79662 13.593 1.5932 13.593 18.123v37.242c0 5.3772-0.56638 8.7629-6.419 0.39833l-43.234-61.937-26.809-0.39833-0.3776 0.59747v4.7797c0 0.79662 1.1328 1.1949 1.6992 1.1949 7.1742 0.59747 9.2509 2.9873 11.139 6.5722v54.569c0 16.53-2.0767 17.327-13.593 18.123-1.1328 1.1949-1.1328 5.3772 0 6.5722 5.6638-0.19897 12.272-0.39843 17.935-0.39843 5.6638 0 12.46 0.19898 18.124 0.39843 1.1328-1.1949 1.1328-5.3772 0-6.5722-11.516-0.99577-13.593-1.5932-13.593-18.123z"/>
  <path d="m212.18 144.95v43.018c0 16.53-2.0767 17.127-13.593 18.123-1.1328 1.1949-1.1328 5.3772 0 6.5722 7.1742-0.19897 15.481-0.39843 21.145-0.39843 5.2862 0 11.894 0.19898 18.124 0.39843 1.1328-1.1949 1.1328-5.3772 0-6.5722-9.0621-0.99577-10.761-1.5932-10.761-18.123v-18.521c4.1535 0 8.8733 0.99578 11.705 4.9789l20.956 27.484c2.6431 3.1865 2.8319 5.3772 2.8319 7.9662v2.7882c2.0767-0.19897 6.7966-0.39843 11.705-0.39843 5.2862 0 14.537 0.39843 14.537 0.39843 1.1328-1.1949 1.1328-5.3772 0-6.5722-5.0975-0.59744-9.6285-2.589-12.083-5.7755l-27.942-34.653c-0.94397-1.1949-1.6991-2.1907-1.6991-3.3856 0-1.5932 1.1328-3.784 4.3423-7.3688l16.236-19.716c5.6638-6.7713 12.649-7.9662 20.201-8.3646 1.1328-1.1949 1.1328-5.3772 0-6.5721-5.8526 0.19916-11.894 0.39833-16.803 0.39833-5.475 0-11.705-0.19917-17.18-0.39833-1.1328 1.1949-1.1328 5.3772 0 6.5721 9.4397 0.59747 7.5518 5.7755-6.9854 23.102-8.1182 9.7586-13.593 12.746-19.823 12.746v-17.725c0-16.53 1.6992-17.127 10.761-18.123 1.1328-1.1949 1.1328-5.3772 0-6.5721-6.0414 0.19916-12.272 0.39833-18.124 0.39833-5.475 0-13.782-0.19917-21.145-0.39833-1.1328 1.1949-1.1328 5.3772 0 6.5721 11.516 0.99578 13.593 1.5932 13.593 18.123z"/>
  <path d="m390.15 144.95c2.0768 4.1823 17.18 27.284 27.942 42.221-9.2509 13.343-16.048 20.513-29.452 20.513-11.894 0-22.089-6.9704-22.089-26.488 0-14.14 4.1535-24.894 23.599-36.246zm32.284 48.594 5.475 7.3688c8.8733 12.945 15.859 13.343 21.711 13.343 6.6078 0 15.104-5.5764 19.446-19.517-1.1328-0.99582-1.888-1.9916-3.9647-1.9916-3.7758 7.7671-8.1182 10.754-14.348 10.754-3.0207 0-8.6846-3.9831-14.537-12.547l-6.7966-9.9578c7.3629-11.352 11.705-19.318 16.803-28.878 8.6846-16.331 9.8173-17.327 21.523-18.123 1.1328-1.1949 1.1328-5.3772 0-6.5721-3.7759 0.19916-9.4397 0.39833-15.859 0.39833-6.419 0-14.16-0.19917-17.935-0.39833-1.1328 1.1949-1.1328 5.3772 0 6.5721 10.195 0.59747 13.027 1.5932 5.8526 15.534-3.2095 6.373-7.7406 14.937-14.537 25.492-8.6845-12.348-19.635-28.878-23.033-35.051l-0.75516-1.5932c15.67-9.5595 28.13-22.505 28.13-33.458 0-12.547-10.95-21.509-24.166-21.509-18.879 0-29.074 14.14-29.074 25.89 0 7.5679 2.6431 15.335 9.6285 28.081-24.921 14.738-34.927 28.081-34.927 43.814 0 24.297 16.048 33.06 36.248 33.06 16.048 0 26.431-8.1654 35.116-20.712zm-24.921-62.734c-4.9087-9.7586-7.1742-17.327-7.1742-21.907 0-13.144 9.2509-18.92 14.16-18.92 7.7406 0 12.083 5.9747 12.083 14.937 0 7.1696-6.9854 17.526-19.068 25.89z"/>
  <path d="m125.35 395.88c-24.166-9.9577-44.933-10.157-50.597-10.157-2.0767 0-4.1535 0.19897-5.8526 0.59745 0.56638-0.59745 1.1328-0.99577 1.8879-1.5932 7.7406-5.7756 16.236-9.9578 22.655-11.949 16.236-2.3899 29.263-11.153 37.948-24.297 7.5518-11.153 11.705-25.691 11.705-42.42 0-41.225-26.998-65.522-60.792-65.522-36.626 0-57.96 30.869-57.96 69.306 0 35.848 22.278 59.348 50.597 63.332-3.3983 1.7924-6.6078 3.9831-9.6285 6.1738-8.8733 6.7713-16.425 14.738-21.9 22.704l7.5518 3.9831c1.6991-2.589 3.5871-5.3772 5.6638-7.767 3.7759-2.9874 7.5518-4.1823 9.4397-4.1823 13.027 0 23.977 3.784 46.255 13.343 14.16 6.1738 27.753 9.1612 43.611 9.1612 19.635 0 38.703-7.3688 50.597-19.119l-3.2095-3.5848c-12.46 7.3688-27.564 11.75-37.004 11.75-14.348 0-23.977-2.7882-40.968-9.7587zm-45.499-148.17c24.921 0 45.122 21.907 45.122 62.137 0 35.649-16.236 56.56-37.759 56.56-23.033 0-44.744-21.708-44.744-59.946 0-41.823 18.691-58.751 37.381-58.751z"/>
  <path d="m231.86 304.27v25.293c0 17.127 0 35.848-24.921 35.848-18.691 0-22.655-15.534-22.655-34.056v-27.085c0-16.53 2.0767-17.127 13.593-18.123 1.1328-1.1949 1.1328-5.3772 0-6.5721-7.363 0.19897-15.104 0.39842-21.145 0.39842-6.7966 0-14.16-0.19897-20.956-0.39842-1.1328 1.1949-1.1328 5.3772 0 6.5721 11.516 0.79665 13.593 1.5933 13.593 18.123v31.267c0 29.873 13.593 38.039 34.361 38.039 29.263 0 37.004-17.526 37.004-46.602v-22.704c0-16.53 2.0767-17.127 13.593-18.123 1.1328-1.1949 1.1328-5.3772 0-6.5721-5.6638 0.19897-12.46 0.39842-18.124 0.39842s-12.272-0.19897-17.935-0.39842c-1.1328 1.1949-1.1328 5.3772 0 6.5721 11.516 0.79665 13.593 1.5933 13.593 18.123z"/>
  <path d="m295.33 304.27c0-16.53 2.0768-17.127 13.593-18.123 1.1328-1.1949 1.1328-5.3772 0-6.5721-7.1742 0.19897-15.481 0.39842-21.145 0.39842-5.8526 0-13.593-0.19897-20.956-0.39842-1.1328 1.1949-1.1328 5.3772 0 6.5721 11.516 0.79665 13.593 1.5933 13.593 18.123v43.018c0 16.53-2.0767 17.127-13.593 18.123-1.1328 1.1949-1.1328 5.3772 0 6.5722 6.9854-0.19897 14.726-0.39842 21.145-0.39842 6.0414 0 14.348 0.19897 20.956 0.39842 1.1328-1.1949 1.1328-5.3772 0-6.5722-11.516-0.79661-13.593-1.5933-13.593-18.123z"/>
  <path d="m388.69 371.58s4.3422-19.119 5.6638-27.484c-1.6992-0.99577-3.2095-1.394-5.2863-0.79661-3.0207 11.75-8.4957 21.509-20.39 21.509h-8.4958c-4.3422 0-6.9854-3.1865-6.9854-6.9705v-53.573c0-16.53 2.0767-17.127 13.593-18.123 1.1328-1.1949 1.1328-5.3772 0-6.5721-6.9854 0.19897-14.726 0.39842-21.145 0.39842-6.0414 0-13.971-0.19897-20.956-0.39842-1.1328 1.1949-1.1328 5.3772 0 6.5721 11.516 0.79665 13.593 1.5933 13.593 18.123v43.018c0 16.53-0.37769 17.526-13.593 18.123-1.1328 1.1949-1.1328 5.3772 0 6.5722 9.2509-0.19897 21.711-0.39842 21.711-0.39842z"/>
  <path d="m470.19 371.58s4.3423-19.119 5.6638-27.484c-1.6992-0.99577-3.2095-1.394-5.2863-0.79661-3.0207 11.75-8.4957 21.509-20.39 21.509h-8.4958c-4.3422 0-6.9854-3.1865-6.9854-6.9705v-53.573c0-16.53 2.0767-17.127 13.593-18.123 1.1328-1.1949 1.1328-5.3772 0-6.5721-6.9854 0.19897-14.726 0.39842-21.145 0.39842-6.0414 0-13.971-0.19897-20.956-0.39842-1.1328 1.1949-1.1328 5.3772 0 6.5721 11.516 0.79665 13.593 1.5933 13.593 18.123v43.018c0 16.53-0.3777 17.526-13.593 18.123-1.1328 1.1949-1.1328 5.3772 0 6.5722 9.2509-0.19897 21.711-0.39842 21.711-0.39842z"/>
</svg>
